<svg id="Layer_1" data-name="Layer 1" xmlns="http://www.w3.org/2000/svg" viewBox="0 0 1171.68 446"><defs><style>.cls-1,.cls-2,.cls-4,.cls-6,.cls-7{fill:#fff8ec;}.cls-2,.cls-5,.cls-6{font-size:23.82px;}.cls-2,.cls-4,.cls-6,.cls-7{font-family:AgencyFB-Reg, Agency FB;}.cls-3{isolation:isolate;}.cls-4{font-size:14.27px;}.cls-6{letter-spacing:-0.04em;}.cls-7{font-size:28.53px;}.cls-8{fill:#bc9948;fill-opacity:0.7;}</style></defs><line class="cls-1" x1="174.19" y1="17.86" x2="163.74" y2="17.86"/><text class="cls-2" transform="translate(62.21 25.51) scale(0.88 1)">14 St-Union Sq</text><line class="cls-1" x1="174.19" y1="57.61" x2="163.74" y2="57.61"/><text class="cls-2" transform="translate(50.82 65.22) scale(0.88 1)">34 St-Herald Sq</text><line class="cls-1" x1="174.19" y1="97.33" x2="163.74" y2="97.33"/><g class="cls-3"><text class="cls-4" transform="translate(2.72 104.94) scale(0.88 1)">(1,2,3) <tspan class="cls-5" x="29.52" y="0" xml:space="preserve"> 34 St-Penn Station </tspan></text><text x="-9.43" y="-99.98"/></g><line class="cls-1" x1="174.19" y1="137.04" x2="163.74" y2="137.04"/><g class="cls-3"><text class="cls-4" transform="translate(0 144.69) scale(0.88 1)">(A,C,E)<tspan class="cls-5" x="29.1" y="0" xml:space="preserve">  34 St-Penn Station </tspan></text><text x="-9.43" y="-99.98"/></g><line class="cls-1" x1="174.19" y1="176.79" x2="163.74" y2="176.79"/><text class="cls-2" transform="translate(10.87 176.79) scale(0.88 1)">59 St-Columbus Circle</text><line class="cls-1" x1="174.19" y1="216.51" x2="163.74" y2="216.51"/><g class="cls-3"><text class="cls-2" transform="translate(68.63 224.12) scale(0.88 1)"><tspan xml:space="preserve">74-Broadway  </tspan></text></g><line class="cls-1" x1="174.19" y1="256.22" x2="163.74" y2="256.22"/><text class="cls-2" transform="translate(48.38 263.84) scale(0.88 1)">Flushing-Main St</text><line class="cls-1" x1="174.19" y1="295.94" x2="163.74" y2="295.94"/><text class="cls-2" transform="translate(98.44 303.59) scale(0.88 1)">Fulton St</text><line class="cls-1" x1="174.19" y1="335.69" x2="163.74" y2="335.69"/><text class="cls-2" transform="translate(25.59 343.3) scale(0.88 1)">Grand Central-42 St</text><line class="cls-1" x1="174.19" y1="375.4" x2="163.74" y2="375.4"/><g class="cls-3"><text class="cls-6" transform="translate(53.42 383.02) scale(0.88 1)">T</text><text class="cls-2" transform="translate(65.42 383.02) scale(0.88 1)">imes Sq-42 St</text></g><line class="cls-1" x1="233.48" y1="405.19" x2="233.48" y2="417.12"/><text class="cls-2" transform="translate(227.67 440) scale(0.88 1)">1</text><line class="cls-1" x1="332.89" y1="405.19" x2="332.89" y2="417.12"/><text class="cls-2" transform="translate(327.07 440) scale(0.88 1)">2</text><line class="cls-1" x1="432.29" y1="405.19" x2="432.29" y2="417.12"/><text class="cls-2" transform="translate(426.47 440) scale(0.88 1)">3</text><line class="cls-1" x1="531.69" y1="405.19" x2="531.69" y2="417.12"/><text class="cls-2" transform="translate(525.88 440) scale(0.88 1)">4</text><line class="cls-1" x1="631.09" y1="405.19" x2="631.09" y2="417.12"/><text class="cls-2" transform="translate(625.28 440) scale(0.88 1)">5</text><line class="cls-1" x1="730.49" y1="405.19" x2="730.49" y2="417.12"/><text class="cls-2" transform="translate(724.68 440) scale(0.88 1)">6</text><line class="cls-1" x1="829.89" y1="405.19" x2="829.89" y2="417.12"/><text class="cls-2" transform="translate(824.08 440) scale(0.88 1)">7</text><line class="cls-1" x1="929.29" y1="405.19" x2="929.29" y2="417.12"/><text class="cls-2" transform="translate(923.48 440) scale(0.88 1)">8</text><line class="cls-1" x1="1028.69" y1="405.19" x2="1028.69" y2="417.12"/><text class="cls-2" transform="translate(1022.88 440) scale(0.88 1)">9</text><line class="cls-1" x1="1128.09" y1="405.19" x2="1128.09" y2="417.12"/><text class="cls-2" transform="translate(1116.47 440) scale(0.88 1)">10</text><text class="cls-7" transform="translate(86.16 440.29) scale(0.88 1)">2020 Rank</text><rect class="cls-8" x="585.75" y="278.08" width="88.93" height="115.22"/><rect class="cls-8" x="287.54" y="317.8" width="88.93" height="75.47"/><rect class="cls-8" x="486.35" width="88.93" height="393.29"/><rect class="cls-8" x="386.95" y="39.72" width="88.93" height="353.55"/><rect class="cls-8" x="685.15" y="79.46" width="88.93" height="313.83"/><rect class="cls-8" x="784.55" y="119.18" width="88.93" height="274.11"/><rect class="cls-8" x="883.95" y="158.9" width="88.93" height="234.37"/><rect class="cls-8" x="188.14" y="357.51" width="88.93" height="35.75"/><rect class="cls-8" x="983.35" y="198.62" width="88.93" height="194.65"/><rect class="cls-8" x="1082.75" y="238.36" width="88.93" height="154.93"/></svg>