{
    "asset" : {
        "generator" : "Khronos glTF Blender I/O v1.6.16",
        "version" : "2.0"
    },
    "scene" : 0,
    "scenes" : [
        {
            "name" : "Scene",
            "nodes" : [
                0
            ]
        }
    ],
    "nodes" : [
        {
            "mesh" : 0,
            "name" : "trial",
            "rotation" : [
                0.9863932132720947,
                0,
                -0.16440336406230927,
                -5.134655225447204e-07
            ],
            "scale" : [
                11.661952018737793,
                11.661951065063477,
                11.661951065063477
            ],
            "translation" : [
                0,
                18.431161880493164,
                0.40827006101608276
            ]
        }
    ],
    "materials" : [
        {
            "doubleSided" : true,
            "name" : "Material.001",
            "pbrMetallicRoughness" : {}
        }
    ],
    "meshes" : [
        {
            "name" : "trial",
            "primitives" : [
                {
                    "attributes" : {
                        "POSITION" : 0,
                        "NORMAL" : 1,
                        "TEXCOORD_0" : 2
                    },
                    "indices" : 3,
                    "material" : 0
                }
            ]
        }
    ],
    "accessors" : [
        {
            "bufferView" : 0,
            "componentType" : 5126,
            "count" : 40416,
            "max" : [
                1.8534387350082397,
                2.0523195266723633,
                0.8132938146591187
            ],
            "min" : [
                -2.003016471862793,
                -1.9567233324050903,
                -0.657854437828064
            ],
            "type" : "VEC3"
        },
        {
            "bufferView" : 1,
            "componentType" : 5126,
            "count" : 40416,
            "type" : "VEC3"
        },
        {
            "bufferView" : 2,
            "componentType" : 5126,
            "count" : 40416,
            "type" : "VEC2"
        },
        {
            "bufferView" : 3,
            "componentType" : 5123,
            "count" : 40416,
            "type" : "SCALAR"
        }
    ],
    "bufferViews" : [
        {
            "buffer" : 0,
            "byteLength" : 484992,
            "byteOffset" : 0
        },
        {
            "buffer" : 0,
            "byteLength" : 484992,
            "byteOffset" : 484992
        },
        {
            "buffer" : 0,
            "byteLength" : 323328,
            "byteOffset" : 969984
        },
        {
            "buffer" : 0,
            "byteLength" : 80832,
            "byteOffset" : 1293312
        }
    ],
    "buffers" : [
        {
            "byteLength" : 1374144,
            "uri" : "data:application/octet-stream;base64,"
        }
    ]
}
