{
    "asset" : {
        "generator" : "Khronos glTF Blender I/O v1.6.16",
        "version" : "2.0"
    },
    "scene" : 0,
    "scenes" : [
        {
            "name" : "Scene",
            "nodes" : [
                0
            ]
        }
    ],
    "nodes" : [
        {
            "mesh" : 0,
            "name" : "trial",
            "rotation" : [
                0.9863932132720947,
                0,
                -0.16440336406230927,
                -5.134655225447204e-07
            ],
            "scale" : [
                11.661952018737793,
                11.661951065063477,
                11.661951065063477
            ],
            "translation" : [
                0,
                18.431161880493164,
                0.40827006101608276
            ]
        }
    ],
    "materials" : [
        {
            "doubleSided" : true,
            "name" : "Material.001",
            "pbrMetallicRoughness" : {
                "baseColorFactor" : [
                    0.8000000715255737,
                    0.3776722848415375,
                    0.06395576149225235,
                    1
                ],
                "roughnessFactor" : 0.072727270424366
            }
        }
    ],
    "meshes" : [
        {
            "name" : "trial",
            "primitives" : [
                {
                    "attributes" : {
                        "POSITION" : 0,
                        "NORMAL" : 1
                    },
                    "indices" : 2,
                    "material" : 0
                }
            ]
        }
    ],
    "accessors" : [
        {
            "bufferView" : 0,
            "componentType" : 5126,
            "count" : 40381,
            "max" : [
                2.043860912322998,
                2.0523200035095215,
                0.5066619515419006
            ],
            "min" : [
                -1.9651299715042114,
                -1.9567229747772217,
                0.2918691635131836
            ],
            "type" : "VEC3"
        },
        {
            "bufferView" : 1,
            "componentType" : 5126,
            "count" : 40381,
            "type" : "VEC3"
        },
        {
            "bufferView" : 2,
            "componentType" : 5123,
            "count" : 40416,
            "type" : "SCALAR"
        }
    ],
    "bufferViews" : [
        {
            "buffer" : 0,
            "byteLength" : 484572,
            "byteOffset" : 0
        },
        {
            "buffer" : 0,
            "byteLength" : 484572,
            "byteOffset" : 484572
        },
        {
            "buffer" : 0,
            "byteLength" : 80832,
            "byteOffset" : 969144
        }
    ],
    "buffers" : [
        {
            "byteLength" : 1049976,
            "uri" : "data:application/octet-stream;base64,"
        }
    ]
}
